HIERARCHY
ROOT Hips
{
	OFFSET 0.00000 0.00000 0.00000
	CHANNELS 6 Xposition Yposition Zposition Zrotation Yrotation Xrotation 
	JOINT LHipJoint
	{
		OFFSET 0 0 0
		CHANNELS 3 Zrotation Yrotation Xrotation
		JOINT LeftUpLeg
		{
			OFFSET 2.36090 -1.39315 1.24752
			CHANNELS 3 Zrotation Yrotation Xrotation
			JOINT LeftLeg
			{
				OFFSET 2.06810 -5.68207 0.00000
				CHANNELS 3 Zrotation Yrotation Xrotation
				JOINT LeftFoot
				{
					OFFSET 2.46631 -6.77613 0.00000
					CHANNELS 3 Zrotation Yrotation Xrotation
					JOINT LeftToeBase
					{
						OFFSET 0.26031 -0.71520 1.99545
						CHANNELS 3 Zrotation Yrotation Xrotation
						End Site
						{
							OFFSET 0.00000 -0.00000 1.05957
						}
					}
				}
			}
		}
	}
	JOINT RHipJoint
	{
		OFFSET 0 0 0
		CHANNELS 3 Zrotation Yrotation Xrotation
		JOINT RightUpLeg
		{
			OFFSET -2.25243 -1.39315 1.24752
			CHANNELS 3 Zrotation Yrotation Xrotation
			JOINT RightLeg
			{
				OFFSET -2.17343 -5.97145 0.00000
				CHANNELS 3 Zrotation Yrotation Xrotation
				JOINT RightFoot
				{
					OFFSET -2.52372 -6.93386 0.00000
					CHANNELS 3 Zrotation Yrotation Xrotation
					JOINT RightToeBase
					{
						OFFSET -0.22538 -0.61923 2.11447
						CHANNELS 3 Zrotation Yrotation Xrotation
						End Site
						{
							OFFSET -0.00000 -0.00000 1.10506
						}
					}
				}
			}
		}
	}
	JOINT LowerBack
	{
		OFFSET 0 0 0
		CHANNELS 3 Zrotation Yrotation Xrotation
		JOINT Spine
		{
			OFFSET 0.01594 2.13103 0.08007
			CHANNELS 3 Zrotation Yrotation Xrotation
			JOINT Spine1
			{
				OFFSET 0.01393 2.09723 0.18338
				CHANNELS 3 Zrotation Yrotation Xrotation
				JOINT Neck
				{
					OFFSET 0 0 0
					CHANNELS 3 Zrotation Yrotation Xrotation
					JOINT Neck1
					{
						OFFSET 0.05351 1.38915 0.32494
						CHANNELS 3 Zrotation Yrotation Xrotation
						JOINT Head
						{
							OFFSET 0.00711 1.45992 -0.21666
							CHANNELS 3 Zrotation Yrotation Xrotation
							End Site
							{
								OFFSET -0.00433 1.47702 -0.11056
							}
						}
					}
				}
				JOINT LeftShoulder
				{
					OFFSET 0 0 0
					CHANNELS 3 Zrotation Yrotation Xrotation
					JOINT LeftArm
					{
						OFFSET 2.87198 0.92249 0.11132
						CHANNELS 3 Zrotation Yrotation Xrotation
						JOINT LeftForeArm
						{
							OFFSET 5.52731 -0.00000 0.00000
							CHANNELS 3 Zrotation Yrotation Xrotation
							JOINT LeftHand
							{
								OFFSET 3.11059 -0.00000 0.00000
								CHANNELS 3 Zrotation Yrotation Xrotation
								JOINT LeftFingerBase
								{
									OFFSET 0 0 0
									CHANNELS 3 Zrotation Yrotation Xrotation
									JOINT LeftHandIndex1
									{
										OFFSET 0.41963 -0.00000 0.00000
										CHANNELS 3 Zrotation Yrotation Xrotation
										End Site
										{
											OFFSET 0.33831 -0.00000 0.00000
										}
									}
								}
								JOINT LThumb
								{
									OFFSET 0 0 0
									CHANNELS 3 Zrotation Yrotation Xrotation
									End Site
									{
										OFFSET 0.34348 -0.00000 0.34348
									}
								}
							}
						}
					}
				}
				JOINT RightShoulder
				{
					OFFSET 0 0 0
					CHANNELS 3 Zrotation Yrotation Xrotation
					JOINT RightArm
					{
						OFFSET -2.94710 0.68072 0.32187
						CHANNELS 3 Zrotation Yrotation Xrotation
						JOINT RightForeArm
						{
							OFFSET -5.25396 -0.00000 -0.00000
							CHANNELS 3 Zrotation Yrotation Xrotation
							JOINT RightHand
							{
								OFFSET -3.10567 -0.00000 0.00000
								CHANNELS 3 Zrotation Yrotation Xrotation
								JOINT RightFingerBase
								{
									OFFSET 0 0 0
									CHANNELS 3 Zrotation Yrotation Xrotation
									JOINT RightHandIndex1
									{
										OFFSET -0.49868 -0.00000 0.00000
										CHANNELS 3 Zrotation Yrotation Xrotation
										End Site
										{
											OFFSET -0.40204 -0.00000 0.00000
										}
									}
								}
								JOINT RThumb
								{
									OFFSET 0 0 0
									CHANNELS 3 Zrotation Yrotation Xrotation
									End Site
									{
										OFFSET -0.40818 -0.00000 0.40818
									}
								}
							}
						}
					}
				}
			}
		}
	}
}
MOTION
Frames: 13
Frame Time: 0.0606061
0.00 0.00 0.00 -169.3490 -68.2772 189.6870 0.0000 0.0000 0.0000 -9.2245 -21.1256 -63.7486 13.3820 18.9158 70.3078 0.2766 2.5029 -11.1782 3.0373 -10.7553 -31.4589 0.0000 0.0000 0.0000 22.3225 25.6408 -45.1175 -8.7468 -16.6420 55.2104 -1.7334 0.3688 -24.8053 -0.0393 1.2789 -3.5165 9.6864 1.9203 -5.7055 2.8834 1.6869 -0.1088 -2.2771 0.9072 3.3017 23.4521 20.6888 -7.2994 -41.6966 27.4960 -8.8042 -13.2935 12.6409 9.2788 -0.0000 0.0000 0.0000 -78.5630 19.0342 -4.8707 13.4844 -21.9928 -2.6319 -0.0000 0.0000 -38.5462 34.5033 8.1358 5.5560 -7.1250 0.0000 -0.0000 6.6946 39.7353 -0.8732 -0.0000 0.0000 0.0000 64.6635 -26.0202 -34.5808 -17.2890 27.2372 -4.2188 0.0000 -0.0000 -9.0467 -32.5657 -28.0274 16.7052 7.1250 -0.0000 -0.0000 -2.6448 -62.2385 1.1088
0.00 0.00 0.00 -180.0110 -76.8594 203.8340 0.0000 0.0000 0.0000 -15.1652 -18.8577 -24.3252 6.3654 14.7734 46.4314 0.1964 4.3841 -11.1486 0.6000 -4.9585 -13.7901 0.0000 0.0000 0.0000 11.0725 28.9231 -45.7703 -4.3963 -12.6698 38.1449 0.2543 -12.8703 -14.6227 -0.0146 0.7810 -2.1464 2.8690 -1.5418 -13.3568 2.6044 -2.7935 -5.1184 0.6781 -1.5317 2.1012 24.2793 23.0129 -3.4967 -36.4910 31.6709 -6.8338 -10.3039 14.9244 9.1113 0.0000 -0.0000 0.0000 -82.0844 -9.8540 34.6490 18.0752 -28.2533 -4.5848 -0.0000 0.0000 -44.7863 32.6863 5.1081 3.2697 -7.1250 0.0000 -0.0000 5.0418 36.0038 -1.1185 0.0000 -0.0000 0.0000 81.2394 -21.2552 -43.0524 -15.3028 24.5662 -3.3508 0.0000 -0.0000 -15.6673 -25.5781 -26.9803 12.2519 7.1250 -0.0000 -0.0000 5.2761 -59.3429 -1.8516
0.00 0.00 0.00 -177.2790 -78.9901 201.0870 0.0000 0.0000 0.0000 -14.4953 -19.5148 -10.4765 2.2844 9.4348 27.1652 0.0641 4.8353 -8.7668 1.4130 -7.5181 -21.2596 0.0000 0.0000 0.0000 10.1939 27.9047 -46.7060 -4.0195 -12.1863 36.3941 0.4833 -14.0790 -12.7057 -0.0318 1.1507 -3.1634 2.1392 -2.3669 -14.4238 2.0926 -3.8170 -5.3088 0.3562 -2.0398 2.4783 24.2399 23.1351 -2.2876 -34.0967 31.5765 -7.4673 -9.7162 15.1027 8.0422 0.0000 0.0000 0.0000 -82.7354 -18.5489 44.5885 21.0943 -31.9382 -6.0997 -0.0000 0.0000 -41.2128 31.1955 3.2702 1.9783 -7.1250 0.0000 -0.0000 3.7571 33.7836 -1.0354 0.0000 0.0000 0.0000 83.6940 -16.9001 -35.1835 -13.3246 21.7610 -2.5724 0.0000 -0.0000 -11.7235 -25.0793 -28.4484 12.5678 7.1250 -0.0000 -0.0000 6.5530 -60.7485 -2.5216
0.00 0.00 0.00 -162.1000 -81.2061 186.1230 0.0000 0.0000 0.0000 -11.7533 -17.3616 -0.5785 0.1512 2.5056 6.9051 0.2163 1.8973 -9.6925 3.3780 -11.2832 -33.2409 0.0000 0.0000 0.0000 10.5572 26.4970 -48.3144 -3.5417 -11.5242 34.0688 0.6885 -14.9372 -9.3793 -0.1006 2.0456 -5.6317 2.4578 -2.8029 -14.1495 2.2772 -4.4301 -5.3604 0.2909 -2.3487 2.2639 24.0596 22.9981 -2.2832 -32.2210 31.1729 -7.3627 -9.2856 14.9586 7.4767 -0.0000 0.0000 0.0000 -86.5429 -27.5992 52.8069 24.9948 -36.1987 -8.2868 -0.0000 0.0000 -38.0767 30.1008 1.4095 0.8170 -7.1250 0.0000 -0.0000 2.8265 31.6012 -0.9273 -0.0000 0.0000 0.0000 84.8013 -11.0299 -18.6749 -12.8770 21.1068 -2.4088 0.0000 -0.0000 -11.0693 -21.8625 -28.5771 10.8646 7.1250 -0.0000 -0.0000 10.2689 -60.0958 -3.8061
0.00 0.00 0.00 -235.8540 -88.5527 260.4630 0.0000 0.0000 0.0000 -16.1565 -20.2080 -11.4376 0.1502 2.4971 6.8816 0.2780 -6.0647 -9.6734 0.8492 -5.8774 -16.4291 0.0000 0.0000 0.0000 -7.8497 28.9676 -53.1030 -3.2625 -11.1084 32.6462 2.1809 -27.1857 -22.1549 -0.2532 -3.2375 8.9408 -4.3008 -2.6444 -13.1134 -0.1000 -3.2442 -5.4379 1.8387 -1.6870 1.8429 18.3771 19.2307 -7.6105 -23.7627 25.5121 -1.0439 -7.1720 11.9192 6.4976 0.0000 0.0000 0.0000 -90.5680 -31.3717 76.7459 46.0398 -51.2678 -23.0471 -0.0000 0.0000 -33.5784 22.6763 -3.2693 -1.3650 -7.1250 0.0000 -0.0000 -2.9947 26.4351 1.3501 0.0000 0.0000 0.0000 81.5453 -5.6189 24.5549 -37.0605 46.2287 -16.2837 0.0000 -0.0000 -17.6559 -28.2800 -22.6384 11.6995 7.1250 -0.0000 -0.0000 0.7618 -55.3190 -0.1930
0.00 0.00 0.00 -360.1950 -85.0690 381.6980 0.0000 0.0000 0.0000 -14.4002 -29.3718 -27.6582 2.6306 10.0717 29.2091 0.6290 -8.3588 -14.4302 0.2009 -2.8865 -7.9630 0.0000 0.0000 0.0000 13.4281 20.6403 -41.1721 -10.8099 -17.8408 62.1627 -0.7444 -9.4794 -22.3672 -0.0306 1.1288 -3.1034 -5.3138 2.4780 -12.7815 -2.9164 3.6700 -6.0134 0.4190 1.7785 0.6841 7.9059 8.4514 -16.9833 -8.5078 11.1734 15.0651 -2.7023 4.9185 8.4120 -0.0000 0.0000 0.0000 -65.2693 1.9268 10.6745 12.5665 -20.6488 -2.2982 -0.0000 0.0000 -19.6486 37.3704 1.7766 1.3564 -7.1250 0.0000 -0.0000 8.6795 32.1348 -2.7606 -0.0000 0.0000 0.0000 79.9591 3.6890 60.1499 -73.3737 58.9293 -45.6530 0.0000 -0.0000 -27.8331 -23.9343 -28.8162 12.0758 7.1250 -0.0000 -0.0000 8.0646 -60.8430 -3.1254
0.00 0.00 0.00 -370.8830 -84.8369 390.9400 0.0000 0.0000 0.0000 -11.6468 -31.2223 -36.1015 5.2610 13.6718 41.9382 1.0745 -9.9892 -18.7587 0.0431 -1.3393 -3.6829 0.0000 0.0000 0.0000 21.3688 24.5394 -35.4369 -14.2471 -19.1873 72.9576 -0.4681 -11.5344 -21.7727 -0.1413 2.4227 -6.6753 -4.5326 3.8869 -10.4859 -4.1452 5.5255 -4.1887 -1.1304 2.6919 1.4704 3.3289 4.2578 -22.7990 -4.3235 5.5844 14.5714 -1.2373 2.3487 8.4786 0.0000 0.0000 0.0000 -58.6139 7.8799 -36.5855 18.0871 -28.2686 -4.5904 -0.0000 0.0000 -52.2914 43.3011 3.3066 3.1113 -7.1250 0.0000 -0.0000 13.6927 34.2612 -3.6974 0.0000 0.0000 0.0000 82.1526 12.8039 70.4484 -91.9620 59.9855 -61.6991 0.0000 -0.0000 -29.8179 -13.0119 -29.9037 6.5719 7.1250 -0.0000 -0.0000 20.6954 -59.3187 -7.4349
0.00 0.00 0.00 -410.6770 -89.9493 430.1470 0.0000 0.0000 0.0000 -12.7910 -28.7467 -38.3454 5.9887 14.4173 44.9362 1.3269 -9.0187 -20.6525 0.0330 -1.1728 -3.2243 0.0000 0.0000 0.0000 22.7878 28.4014 -33.1789 -17.1405 -19.8028 81.6131 -0.1800 -12.6889 -20.1531 -0.1416 2.4254 -6.6829 -7.5882 5.9702 -9.5636 -4.7225 8.6080 -3.0080 0.2013 4.2168 1.7930 0.2461 1.1803 -26.5853 -2.9852 2.0916 13.6952 -0.7644 0.6408 8.6082 -0.0000 0.0000 0.0000 -57.4374 13.5755 -47.1583 23.4410 -34.5675 -7.3870 -0.0000 0.0000 -65.7861 34.0216 7.4745 5.0185 -7.1250 0.0000 -0.0000 6.2522 38.9032 -0.9434 -0.0000 0.0000 0.0000 82.5046 18.9379 76.2587 -109.6874 58.4836 -76.9630 0.0000 -0.0000 -31.3355 -2.2417 -31.8284 1.1827 7.1250 -0.0000 -0.0000 33.1577 -58.6011 -11.8522
0.00 0.00 0.00 -356.9480 -101.7860 380.5560 0.0000 0.0000 0.0000 -10.7250 -24.4613 -33.0583 2.3029 9.4704 27.2783 0.6024 2.7008 -15.8895 0.2457 -3.1896 -8.8072 0.0000 0.0000 0.0000 5.3787 30.7322 -43.5137 -14.1943 -19.1719 72.7971 -0.5843 -8.9561 -20.3673 -0.0134 0.7468 -2.0523 -5.1653 7.6337 -11.5482 -5.7150 10.6039 -4.5461 -1.7351 5.1891 1.7840 0.4109 1.2723 -29.7878 -3.2837 2.1158 11.9613 -0.8901 0.5947 8.5109 -0.0000 0.0000 0.0000 -71.5495 27.2078 -41.1745 17.1768 -27.0903 -4.1676 -0.0000 0.0000 -46.9586 38.6287 4.5019 3.5891 -7.1250 0.0000 -0.0000 9.9908 35.5858 -2.3404 -0.0000 0.0000 0.0000 87.2047 22.4320 92.4441 -112.9637 57.9106 -79.7476 0.0000 -0.0000 -29.3481 15.6975 -21.4984 -5.8804 7.1250 -0.0000 -0.0000 41.2262 -47.0118 -2.4595
0.00 0.00 0.00 -357.0400 -103.2700 381.8580 0.0000 0.0000 0.0000 -9.1772 -24.6712 -28.7962 1.1465 6.7990 19.1212 0.1829 7.1373 -13.6240 0.3978 -4.0494 -11.2157 0.0000 0.0000 0.0000 -0.0355 31.8210 -42.0738 -8.2827 -16.3233 53.5748 -0.6450 -10.9662 -22.8466 -0.0335 1.1819 -3.2493 -3.6122 7.1035 -12.5391 -5.6129 9.6201 -5.9782 -2.5577 4.6692 1.0537 2.5635 2.4277 -28.0305 -2.8605 2.8532 13.2713 -0.9725 1.1276 8.7309 -0.0000 0.0000 0.0000 -77.6131 22.3810 -47.2407 12.9424 -21.2027 -2.4324 -0.0000 0.0000 -43.4992 39.6600 11.2211 9.1644 -7.1250 0.0000 -0.0000 11.5907 44.1185 -0.2557 -0.0000 0.0000 0.0000 85.8214 19.2511 89.9013 -96.8010 59.8245 -65.8863 0.0000 -0.0000 -34.0870 22.2642 -21.6345 -8.5834 7.1250 -0.0000 -0.0000 46.3213 -46.1546 -1.6913
0.00 0.00 0.00 -361.1510 -102.9410 386.3580 0.0000 0.0000 0.0000 -9.0385 -23.8835 -25.8306 0.5468 4.7374 13.1610 0.0080 7.7877 -11.2724 0.5413 -4.7140 -13.0947 0.0000 0.0000 0.0000 -3.4773 33.4635 -39.6667 -5.1192 -13.5168 41.3352 -0.4105 -9.6619 -19.2256 -0.4239 4.1788 -11.5802 -3.3663 6.3122 -13.6237 -5.3912 8.5143 -6.4821 -2.5269 4.0888 1.0784 3.6037 2.9858 -26.0019 -2.7093 3.2959 13.9609 -1.0290 1.4361 8.6736 0.0000 -0.0000 0.0000 -81.0299 17.9814 -40.2843 12.0254 -19.8427 -2.1109 -0.0000 0.0000 -46.3031 44.0079 15.4035 14.3901 -7.1250 0.0000 -0.0000 16.5514 50.1986 2.1730 0.0000 -0.0000 0.0000 84.6047 16.2968 84.8572 -78.7334 59.5149 -50.2587 0.0000 -0.0000 -35.4256 13.4862 -21.9691 -5.1268 7.1250 -0.0000 -0.0000 39.7547 -47.7105 -3.1362
0.00 0.00 0.00 -373.6040 -102.3530 398.0030 0.0000 0.0000 0.0000 -9.3350 -24.2373 -20.1278 0.0644 1.6371 4.5037 -0.2965 10.1612 -7.2911 0.9220 -6.1177 -17.1262 0.0000 0.0000 0.0000 -2.9814 30.9339 -37.5742 -4.6697 -13.0019 39.3757 -1.0990 -5.3572 -22.4178 -1.1720 6.8716 -19.3355 -4.6606 5.2058 -14.2104 -5.2840 7.1838 -6.6144 -1.8621 3.4241 1.0360 3.2987 2.8863 -23.9421 -1.8358 3.2151 16.2933 -0.7016 1.5002 9.1192 -0.0000 0.0000 0.0000 -82.4264 10.7492 -6.4739 13.5089 -22.0283 -2.6411 -0.0000 0.0000 -46.0010 40.4149 10.5129 8.8311 -7.1250 0.0000 -0.0000 12.2280 43.3386 -0.5095 -0.0000 0.0000 0.0000 85.5836 9.6719 69.4864 -47.4338 51.9066 -24.1394 0.0000 -0.0000 -27.3960 -9.2282 -19.3214 3.0770 7.1250 -0.0000 -0.0000 18.4766 -48.6284 -1.7073
0.00 0.00 0.00 -338.7310 -105.9180 357.9970 0.0000 0.0000 0.0000 -12.5083 -16.2569 -27.7425 5.5372 13.9643 43.0947 0.1855 20.3012 -30.0128 0.0286 -1.0914 -3.0004 0.0000 0.0000 0.0000 23.0167 32.3451 -27.9199 -4.6074 -12.9276 39.0981 -1.3292 1.5288 -21.3516 -0.0018 0.2761 -0.7585 6.5470 -4.1568 -15.6693 5.4375 -7.2322 -3.7887 0.6778 -3.6812 4.6290 17.0823 12.8942 -10.8156 -12.2398 17.4054 24.3002 -4.6716 7.9936 12.5021 0.0000 0.0000 0.0000 -83.5355 -10.2144 37.4469 33.6975 -43.8593 -13.9030 -0.0000 0.0000 -37.0106 28.4064 -0.3438 -0.1859 -7.1250 0.0000 -0.0000 1.4456 29.5875 -0.5435 0.0000 0.0000 0.0000 45.7622 -18.2346 -4.1473 -15.9008 25.3859 -3.6033 0.0000 -0.0000 -14.5708 -30.5847 -26.6339 14.8398 7.1250 -0.0000 -0.0000 -0.6711 -60.2015 0.2489
